<?xml version="1.0" encoding="UTF-8" standalone="no"?>
    <svg width="800" height="200" xmlns="http://www.w3.org/2000/svg">
        <rect width="100%" height="100%" fill="black"/>
        
        <!-- Contributions Grid -->
        <g id="commits">
            <circle cx="0" cy="0" r="5" fill="None"/> <circle cx="0" cy="13" r="5" fill="None"/> <circle cx="0" cy="26" r="5" fill="None"/> <circle cx="0" cy="39" r="5" fill="None"/> <circle cx="0" cy="52" r="5" fill="None"/> <circle cx="0" cy="65" r="5" fill="None"/> <circle cx="0" cy="78" r="5" fill="None"/> <circle cx="13" cy="0" r="5" fill="None"/> <circle cx="13" cy="13" r="5" fill="None"/> <circle cx="13" cy="26" r="5" fill="None"/> <circle cx="13" cy="39" r="5" fill="None"/> <circle cx="13" cy="52" r="5" fill="None"/> <circle cx="13" cy="65" r="5" fill="None"/> <circle cx="13" cy="78" r="5" fill="None"/> <circle cx="26" cy="0" r="5" fill="None"/> <circle cx="26" cy="13" r="5" fill="None"/> <circle cx="26" cy="26" r="5" fill="None"/> <circle cx="26" cy="39" r="5" fill="None"/> <circle cx="26" cy="52" r="5" fill="None"/> <circle cx="26" cy="65" r="5" fill="None"/> <circle cx="26" cy="78" r="5" fill="None"/> <circle cx="39" cy="0" r="5" fill="None"/> <circle cx="39" cy="13" r="5" fill="None"/> <circle cx="39" cy="26" r="5" fill="None"/> <circle cx="39" cy="39" r="5" fill="None"/> <circle cx="39" cy="52" r="5" fill="None"/> <circle cx="39" cy="65" r="5" fill="None"/> <circle cx="39" cy="78" r="5" fill="None"/> <circle cx="52" cy="0" r="5" fill="None"/> <circle cx="52" cy="13" r="5" fill="None"/> <circle cx="52" cy="26" r="5" fill="None"/> <circle cx="52" cy="39" r="5" fill="None"/> <circle cx="52" cy="52" r="5" fill="None"/> <circle cx="52" cy="65" r="5" fill="None"/> <circle cx="52" cy="78" r="5" fill="None"/> <circle cx="65" cy="0" r="5" fill="None"/> <circle cx="65" cy="13" r="5" fill="None"/> <circle cx="65" cy="26" r="5" fill="None"/> <circle cx="65" cy="39" r="5" fill="None"/> <circle cx="65" cy="52" r="5" fill="None"/> <circle cx="65" cy="65" r="5" fill="None"/> <circle cx="65" cy="78" r="5" fill="None"/> <circle cx="78" cy="0" r="5" fill="None"/> <circle cx="78" cy="13" r="5" fill="None"/> <circle cx="78" cy="26" r="5" fill="None"/> <circle cx="78" cy="39" r="5" fill="None"/> <circle cx="78" cy="52" r="5" fill="None"/> <circle cx="78" cy="65" r="5" fill="None"/> <circle cx="78" cy="78" r="5" fill="None"/> <circle cx="91" cy="0" r="5" fill="None"/> <circle cx="91" cy="13" r="5" fill="None"/> <circle cx="91" cy="26" r="5" fill="None"/> <circle cx="91" cy="39" r="5" fill="None"/> <circle cx="91" cy="52" r="5" fill="None"/> <circle cx="91" cy="65" r="5" fill="None"/> <circle cx="91" cy="78" r="5" fill="None"/> <circle cx="104" cy="0" r="5" fill="None"/> <circle cx="104" cy="13" r="5" fill="None"/> <circle cx="104" cy="26" r="5" fill="None"/> <circle cx="104" cy="39" r="5" fill="None"/> <circle cx="104" cy="52" r="5" fill="None"/> <circle cx="104" cy="65" r="5" fill="None"/> <circle cx="104" cy="78" r="5" fill="None"/> <circle cx="117" cy="0" r="5" fill="None"/> <circle cx="117" cy="13" r="5" fill="None"/> <circle cx="117" cy="26" r="5" fill="None"/> <circle cx="117" cy="39" r="5" fill="None"/> <circle cx="117" cy="52" r="5" fill="None"/> <circle cx="117" cy="65" r="5" fill="None"/> <circle cx="117" cy="78" r="5" fill="None"/> <circle cx="130" cy="0" r="5" fill="None"/> <circle cx="130" cy="13" r="5" fill="None"/> <circle cx="130" cy="26" r="5" fill="None"/> <circle cx="130" cy="39" r="5" fill="None"/> <circle cx="130" cy="52" r="5" fill="None"/> <circle cx="130" cy="65" r="5" fill="None"/> <circle cx="130" cy="78" r="5" fill="None"/> <circle cx="143" cy="0" r="5" fill="None"/> <circle cx="143" cy="13" r="5" fill="None"/> <circle cx="143" cy="26" r="5" fill="None"/> <circle cx="143" cy="39" r="5" fill="None"/> <circle cx="143" cy="52" r="5" fill="None"/> <circle cx="143" cy="65" r="5" fill="None"/> <circle cx="143" cy="78" r="5" fill="None"/> <circle cx="156" cy="0" r="5" fill="None"/> <circle cx="156" cy="13" r="5" fill="None"/> <circle cx="156" cy="26" r="5" fill="None"/> <circle cx="156" cy="39" r="5" fill="None"/> <circle cx="156" cy="52" r="5" fill="None"/> <circle cx="156" cy="65" r="5" fill="None"/> <circle cx="156" cy="78" r="5" fill="None"/> <circle cx="169" cy="0" r="5" fill="None"/> <circle cx="169" cy="13" r="5" fill="None"/> <circle cx="169" cy="26" r="5" fill="None"/> <circle cx="169" cy="39" r="5" fill="None"/> <circle cx="169" cy="52" r="5" fill="None"/> <circle cx="169" cy="65" r="5" fill="None"/> <circle cx="169" cy="78" r="5" fill="None"/> <circle cx="182" cy="0" r="5" fill="None"/> <circle cx="182" cy="13" r="5" fill="None"/> <circle cx="182" cy="26" r="5" fill="None"/> <circle cx="182" cy="39" r="5" fill="None"/> <circle cx="182" cy="52" r="5" fill="None"/> <circle cx="182" cy="65" r="5" fill="None"/> <circle cx="182" cy="78" r="5" fill="None"/> <circle cx="195" cy="0" r="5" fill="None"/> <circle cx="195" cy="13" r="5" fill="None"/> <circle cx="195" cy="26" r="5" fill="None"/> <circle cx="195" cy="39" r="5" fill="None"/> <circle cx="195" cy="52" r="5" fill="None"/> <circle cx="195" cy="65" r="5" fill="None"/> <circle cx="195" cy="78" r="5" fill="None"/> <circle cx="208" cy="0" r="5" fill="None"/> <circle cx="208" cy="13" r="5" fill="None"/> <circle cx="208" cy="26" r="5" fill="None"/> <circle cx="208" cy="39" r="5" fill="None"/> <circle cx="208" cy="52" r="5" fill="None"/> <circle cx="208" cy="65" r="5" fill="None"/> <circle cx="208" cy="78" r="5" fill="None"/> <circle cx="221" cy="0" r="5" fill="None"/> <circle cx="221" cy="13" r="5" fill="None"/> <circle cx="221" cy="26" r="5" fill="None"/> <circle cx="221" cy="39" r="5" fill="None"/> <circle cx="221" cy="52" r="5" fill="None"/> <circle cx="221" cy="65" r="5" fill="None"/> <circle cx="221" cy="78" r="5" fill="None"/> <circle cx="234" cy="0" r="5" fill="None"/> <circle cx="234" cy="13" r="5" fill="None"/> <circle cx="234" cy="26" r="5" fill="None"/> <circle cx="234" cy="39" r="5" fill="None"/> <circle cx="234" cy="52" r="5" fill="None"/> <circle cx="234" cy="65" r="5" fill="None"/> <circle cx="234" cy="78" r="5" fill="None"/> <circle cx="247" cy="0" r="5" fill="None"/> <circle cx="247" cy="13" r="5" fill="None"/> <circle cx="247" cy="26" r="5" fill="None"/> <circle cx="247" cy="39" r="5" fill="None"/> <circle cx="247" cy="52" r="5" fill="None"/> <circle cx="247" cy="65" r="5" fill="None"/> <circle cx="247" cy="78" r="5" fill="None"/> <circle cx="260" cy="0" r="5" fill="None"/> <circle cx="260" cy="13" r="5" fill="None"/> <circle cx="260" cy="26" r="5" fill="None"/> <circle cx="260" cy="39" r="5" fill="None"/> <circle cx="260" cy="52" r="5" fill="None"/> <circle cx="260" cy="65" r="5" fill="None"/> <circle cx="260" cy="78" r="5" fill="None"/> <circle cx="273" cy="0" r="5" fill="None"/> <circle cx="273" cy="13" r="5" fill="None"/> <circle cx="273" cy="26" r="5" fill="None"/> <circle cx="273" cy="39" r="5" fill="None"/> <circle cx="273" cy="52" r="5" fill="None"/> <circle cx="273" cy="65" r="5" fill="None"/> <circle cx="273" cy="78" r="5" fill="None"/> <circle cx="286" cy="0" r="5" fill="None"/> <circle cx="286" cy="13" r="5" fill="None"/> <circle cx="286" cy="26" r="5" fill="None"/> <circle cx="286" cy="39" r="5" fill="None"/> <circle cx="286" cy="52" r="5" fill="None"/> <circle cx="286" cy="65" r="5" fill="None"/> <circle cx="286" cy="78" r="5" fill="None"/> <circle cx="299" cy="0" r="5" fill="None"/> <circle cx="299" cy="13" r="5" fill="None"/> <circle cx="299" cy="26" r="5" fill="None"/> <circle cx="299" cy="39" r="5" fill="None"/> <circle cx="299" cy="52" r="5" fill="None"/> <circle cx="299" cy="65" r="5" fill="None"/> <circle cx="299" cy="78" r="5" fill="None"/> <circle cx="312" cy="0" r="5" fill="None"/> <circle cx="312" cy="13" r="5" fill="None"/> <circle cx="312" cy="26" r="5" fill="None"/> <circle cx="312" cy="39" r="5" fill="None"/> <circle cx="312" cy="52" r="5" fill="None"/> <circle cx="312" cy="65" r="5" fill="None"/> <circle cx="312" cy="78" r="5" fill="None"/> <circle cx="325" cy="0" r="5" fill="None"/> <circle cx="325" cy="13" r="5" fill="None"/> <circle cx="325" cy="26" r="5" fill="None"/> <circle cx="325" cy="39" r="5" fill="None"/> <circle cx="325" cy="52" r="5" fill="None"/> <circle cx="325" cy="65" r="5" fill="None"/> <circle cx="325" cy="78" r="5" fill="None"/> <circle cx="338" cy="0" r="5" fill="None"/> <circle cx="338" cy="13" r="5" fill="None"/> <circle cx="338" cy="26" r="5" fill="None"/> <circle cx="338" cy="39" r="5" fill="None"/> <circle cx="338" cy="52" r="5" fill="None"/> <circle cx="338" cy="65" r="5" fill="None"/> <circle cx="338" cy="78" r="5" fill="None"/> <circle cx="351" cy="0" r="5" fill="None"/> <circle cx="351" cy="13" r="5" fill="None"/> <circle cx="351" cy="26" r="5" fill="None"/> <circle cx="351" cy="39" r="5" fill="None"/> <circle cx="351" cy="52" r="5" fill="None"/> <circle cx="351" cy="65" r="5" fill="None"/> <circle cx="351" cy="78" r="5" fill="None"/> <circle cx="364" cy="0" r="5" fill="None"/> <circle cx="364" cy="13" r="5" fill="None"/> <circle cx="364" cy="26" r="5" fill="None"/> <circle cx="364" cy="39" r="5" fill="None"/> <circle cx="364" cy="52" r="5" fill="None"/> <circle cx="364" cy="65" r="5" fill="None"/> <circle cx="364" cy="78" r="5" fill="None"/> <circle cx="377" cy="0" r="5" fill="None"/> <circle cx="377" cy="13" r="5" fill="None"/> <circle cx="377" cy="26" r="5" fill="None"/> <circle cx="377" cy="39" r="5" fill="None"/> <circle cx="377" cy="52" r="5" fill="None"/> <circle cx="377" cy="65" r="5" fill="None"/> <circle cx="377" cy="78" r="5" fill="None"/> <circle cx="390" cy="0" r="5" fill="None"/> <circle cx="390" cy="13" r="5" fill="None"/> <circle cx="390" cy="26" r="5" fill="None"/> <circle cx="390" cy="39" r="5" fill="None"/> <circle cx="390" cy="52" r="5" fill="None"/> <circle cx="390" cy="65" r="5" fill="None"/> <circle cx="390" cy="78" r="5" fill="None"/> <circle cx="403" cy="0" r="5" fill="None"/> <circle cx="403" cy="13" r="5" fill="None"/> <circle cx="403" cy="26" r="5" fill="None"/> <circle cx="403" cy="39" r="5" fill="None"/> <circle cx="403" cy="52" r="5" fill="None"/> <circle cx="403" cy="65" r="5" fill="None"/> <circle cx="403" cy="78" r="5" fill="None"/> <circle cx="416" cy="0" r="5" fill="None"/> <circle cx="416" cy="13" r="5" fill="None"/> <circle cx="416" cy="26" r="5" fill="None"/> <circle cx="416" cy="39" r="5" fill="None"/> <circle cx="416" cy="52" r="5" fill="None"/> <circle cx="416" cy="65" r="5" fill="None"/> <circle cx="416" cy="78" r="5" fill="None"/> <circle cx="429" cy="0" r="5" fill="None"/> <circle cx="429" cy="13" r="5" fill="None"/> <circle cx="429" cy="26" r="5" fill="None"/> <circle cx="429" cy="39" r="5" fill="None"/> <circle cx="429" cy="52" r="5" fill="None"/> <circle cx="429" cy="65" r="5" fill="None"/> <circle cx="429" cy="78" r="5" fill="None"/> <circle cx="442" cy="0" r="5" fill="None"/> <circle cx="442" cy="13" r="5" fill="None"/> <circle cx="442" cy="26" r="5" fill="None"/> <circle cx="442" cy="39" r="5" fill="None"/> <circle cx="442" cy="52" r="5" fill="None"/> <circle cx="442" cy="65" r="5" fill="None"/> <circle cx="442" cy="78" r="5" fill="None"/> <circle cx="455" cy="0" r="5" fill="None"/> <circle cx="455" cy="13" r="5" fill="None"/> <circle cx="455" cy="26" r="5" fill="None"/> <circle cx="455" cy="39" r="5" fill="None"/> <circle cx="455" cy="52" r="5" fill="None"/> <circle cx="455" cy="65" r="5" fill="None"/> <circle cx="455" cy="78" r="5" fill="None"/> <circle cx="468" cy="0" r="5" fill="None"/> <circle cx="468" cy="13" r="5" fill="None"/> <circle cx="468" cy="26" r="5" fill="None"/> <circle cx="468" cy="39" r="5" fill="None"/> <circle cx="468" cy="52" r="5" fill="None"/> <circle cx="468" cy="65" r="5" fill="None"/> <circle cx="468" cy="78" r="5" fill="None"/> <circle cx="481" cy="0" r="5" fill="None"/> <circle cx="481" cy="13" r="5" fill="None"/> <circle cx="481" cy="26" r="5" fill="None"/> <circle cx="481" cy="39" r="5" fill="None"/> <circle cx="481" cy="52" r="5" fill="None"/> <circle cx="481" cy="65" r="5" fill="None"/> <circle cx="481" cy="78" r="5" fill="None"/> <circle cx="494" cy="0" r="5" fill="None"/> <circle cx="494" cy="13" r="5" fill="None"/> <circle cx="494" cy="26" r="5" fill="None"/> <circle cx="494" cy="39" r="5" fill="None"/> <circle cx="494" cy="52" r="5" fill="None"/> <circle cx="494" cy="65" r="5" fill="None"/> <circle cx="494" cy="78" r="5" fill="None"/> <circle cx="507" cy="0" r="5" fill="None"/> <circle cx="507" cy="13" r="5" fill="None"/> <circle cx="507" cy="26" r="5" fill="None"/> <circle cx="507" cy="39" r="5" fill="None"/> <circle cx="507" cy="52" r="5" fill="None"/> <circle cx="507" cy="65" r="5" fill="None"/> <circle cx="507" cy="78" r="5" fill="None"/> <circle cx="520" cy="0" r="5" fill="None"/> <circle cx="520" cy="13" r="5" fill="None"/> <circle cx="520" cy="26" r="5" fill="None"/> <circle cx="520" cy="39" r="5" fill="None"/> <circle cx="520" cy="52" r="5" fill="None"/> <circle cx="520" cy="65" r="5" fill="None"/> <circle cx="520" cy="78" r="5" fill="None"/> <circle cx="533" cy="0" r="5" fill="None"/> <circle cx="533" cy="13" r="5" fill="None"/> <circle cx="533" cy="26" r="5" fill="None"/> <circle cx="533" cy="39" r="5" fill="None"/> <circle cx="533" cy="52" r="5" fill="None"/> <circle cx="533" cy="65" r="5" fill="None"/> <circle cx="533" cy="78" r="5" fill="None"/> <circle cx="546" cy="0" r="5" fill="None"/> <circle cx="546" cy="13" r="5" fill="None"/> <circle cx="546" cy="26" r="5" fill="None"/> <circle cx="546" cy="39" r="5" fill="None"/> <circle cx="546" cy="52" r="5" fill="None"/> <circle cx="546" cy="65" r="5" fill="None"/> <circle cx="546" cy="78" r="5" fill="None"/> <circle cx="559" cy="0" r="5" fill="None"/> <circle cx="559" cy="13" r="5" fill="None"/> <circle cx="559" cy="26" r="5" fill="None"/> <circle cx="559" cy="39" r="5" fill="None"/> <circle cx="559" cy="52" r="5" fill="None"/> <circle cx="559" cy="65" r="5" fill="None"/> <circle cx="559" cy="78" r="5" fill="None"/> <circle cx="572" cy="0" r="5" fill="None"/> <circle cx="572" cy="13" r="5" fill="None"/> <circle cx="572" cy="26" r="5" fill="None"/> <circle cx="572" cy="39" r="5" fill="None"/> <circle cx="572" cy="52" r="5" fill="None"/> <circle cx="572" cy="65" r="5" fill="None"/> <circle cx="572" cy="78" r="5" fill="None"/> <circle cx="585" cy="0" r="5" fill="None"/> <circle cx="585" cy="13" r="5" fill="None"/> <circle cx="585" cy="26" r="5" fill="None"/> <circle cx="585" cy="39" r="5" fill="None"/> <circle cx="585" cy="52" r="5" fill="None"/> <circle cx="585" cy="65" r="5" fill="None"/> <circle cx="585" cy="78" r="5" fill="None"/> <circle cx="598" cy="0" r="5" fill="None"/> <circle cx="598" cy="13" r="5" fill="None"/> <circle cx="598" cy="26" r="5" fill="None"/> <circle cx="598" cy="39" r="5" fill="None"/> <circle cx="598" cy="52" r="5" fill="None"/> <circle cx="598" cy="65" r="5" fill="None"/> <circle cx="598" cy="78" r="5" fill="None"/> <circle cx="611" cy="0" r="5" fill="None"/> <circle cx="611" cy="13" r="5" fill="None"/> <circle cx="611" cy="26" r="5" fill="None"/> <circle cx="611" cy="39" r="5" fill="None"/> <circle cx="611" cy="52" r="5" fill="None"/> <circle cx="611" cy="65" r="5" fill="None"/> <circle cx="611" cy="78" r="5" fill="None"/> <circle cx="624" cy="0" r="5" fill="None"/> <circle cx="624" cy="13" r="5" fill="None"/> <circle cx="624" cy="26" r="5" fill="None"/> <circle cx="624" cy="39" r="5" fill="None"/> <circle cx="624" cy="52" r="5" fill="None"/> <circle cx="624" cy="65" r="5" fill="None"/> <circle cx="624" cy="78" r="5" fill="None"/> <circle cx="637" cy="0" r="5" fill="None"/> <circle cx="637" cy="13" r="5" fill="None"/> <circle cx="637" cy="26" r="5" fill="None"/> <circle cx="637" cy="39" r="5" fill="None"/> <circle cx="637" cy="52" r="5" fill="None"/> <circle cx="637" cy="65" r="5" fill="None"/> <circle cx="637" cy="78" r="5" fill="None"/> <circle cx="650" cy="0" r="5" fill="None"/> <circle cx="650" cy="13" r="5" fill="None"/> <circle cx="650" cy="26" r="5" fill="None"/> <circle cx="650" cy="39" r="5" fill="None"/> <circle cx="650" cy="52" r="5" fill="None"/> <circle cx="650" cy="65" r="5" fill="None"/> <circle cx="650" cy="78" r="5" fill="None"/> <circle cx="663" cy="0" r="5" fill="None"/> <circle cx="663" cy="13" r="5" fill="None"/> <circle cx="663" cy="26" r="5" fill="None"/> <circle cx="663" cy="39" r="5" fill="None"/> <circle cx="663" cy="52" r="5" fill="None"/> <circle cx="663" cy="65" r="5" fill="None"/> <circle cx="663" cy="78" r="5" fill="None"/> <circle cx="676" cy="0" r="5" fill="None"/> <circle cx="676" cy="13" r="5" fill="None"/> <circle cx="676" cy="26" r="5" fill="None"/> <circle cx="676" cy="39" r="5" fill="None"/> <circle cx="0" cy="0" r="5" fill="None"/> <circle cx="13" cy="0" r="5" fill="None"/> <circle cx="26" cy="0" r="5" fill="None"/> <circle cx="39" cy="0" r="5" fill="None"/> <circle cx="52" cy="0" r="5" fill="None"/>
        </g>
        
        <!-- Pac-Man -->
        <g id="pacman" transform="translate(0.0,50)">
            <circle r="10" fill="yellow"/>
            <polygon points="0,0 10,-5 10,5" fill="black"/>
            
    <animateTransform attributeName="transform" type="translate"
        from="0.0,50" to="686.0,50"
        dur="5s" repeatCount="indefinite"/>
    
        </g>

        <!-- Eating Effect -->
        <g id="eating">
            <animate attributeName="opacity" values="1;0" keyTimes="0;1" dur="5s" repeatCount="indefinite"/>
        </g>
    </svg>