<?xml version="1.0" encoding="UTF-8" standalone="no"?>
    <svg width="800" height="200" xmlns="http://www.w3.org/2000/svg">
        <rect width="100%" height="100%" fill="black"/>
        <g id="commits"><circle cx="0.0" cy="0.0" r="5" fill="None"/> <circle cx="13.0" cy="0.0" r="5" fill="None"/> <circle cx="26.0" cy="0.0" r="5" fill="None"/> <circle cx="39.0" cy="0.0" r="5" fill="None"/> <circle cx="52.0" cy="0.0" r="5" fill="None"/> <circle cx="65.0" cy="0.0" r="5" fill="None"/> <circle cx="78.0" cy="0.0" r="5" fill="None"/> <circle cx="91.0" cy="0.0" r="5" fill="None"/> <circle cx="104.0" cy="0.0" r="5" fill="None"/> <circle cx="117.0" cy="0.0" r="5" fill="None"/> <circle cx="130.0" cy="0.0" r="5" fill="None"/> <circle cx="143.0" cy="0.0" r="5" fill="None"/> <circle cx="156.0" cy="0.0" r="5" fill="None"/> <circle cx="169.0" cy="0.0" r="5" fill="None"/> <circle cx="182.0" cy="0.0" r="5" fill="None"/> <circle cx="195.0" cy="0.0" r="5" fill="None"/> <circle cx="208.0" cy="0.0" r="5" fill="None"/> <circle cx="221.0" cy="0.0" r="5" fill="None"/> <circle cx="234.0" cy="0.0" r="5" fill="None"/> <circle cx="247.0" cy="0.0" r="5" fill="None"/> <circle cx="260.0" cy="0.0" r="5" fill="None"/> <circle cx="273.0" cy="0.0" r="5" fill="None"/> <circle cx="286.0" cy="0.0" r="5" fill="None"/> <circle cx="299.0" cy="0.0" r="5" fill="None"/> <circle cx="312.0" cy="0.0" r="5" fill="None"/> <circle cx="325.0" cy="0.0" r="5" fill="None"/> <circle cx="338.0" cy="0.0" r="5" fill="None"/> <circle cx="351.0" cy="0.0" r="5" fill="None"/> <circle cx="364.0" cy="0.0" r="5" fill="None"/> <circle cx="377.0" cy="0.0" r="5" fill="None"/> <circle cx="390.0" cy="0.0" r="5" fill="None"/> <circle cx="403.0" cy="0.0" r="5" fill="None"/> <circle cx="416.0" cy="0.0" r="5" fill="None"/> <circle cx="429.0" cy="0.0" r="5" fill="None"/> <circle cx="442.0" cy="0.0" r="5" fill="None"/> <circle cx="455.0" cy="0.0" r="5" fill="None"/> <circle cx="468.0" cy="0.0" r="5" fill="None"/> <circle cx="481.0" cy="0.0" r="5" fill="None"/> <circle cx="494.0" cy="0.0" r="5" fill="None"/> <circle cx="507.0" cy="0.0" r="5" fill="None"/> <circle cx="520.0" cy="0.0" r="5" fill="None"/> <circle cx="533.0" cy="0.0" r="5" fill="None"/> <circle cx="546.0" cy="0.0" r="5" fill="None"/> <circle cx="559.0" cy="0.0" r="5" fill="None"/> <circle cx="572.0" cy="0.0" r="5" fill="None"/> <circle cx="585.0" cy="0.0" r="5" fill="None"/> <circle cx="598.0" cy="0.0" r="5" fill="None"/> <circle cx="611.0" cy="0.0" r="5" fill="None"/> <circle cx="624.0" cy="0.0" r="5" fill="None"/> <circle cx="637.0" cy="0.0" r="5" fill="None"/> <circle cx="650.0" cy="0.0" r="5" fill="None"/> <circle cx="663.0" cy="0.0" r="5" fill="None"/> <circle cx="676.0" cy="0.0" r="5" fill="None"/> <circle cx="0.0" cy="0.0" r="5" fill="None"/> <circle cx="13.0" cy="0.0" r="5" fill="None"/> <circle cx="26.0" cy="0.0" r="5" fill="None"/> <circle cx="39.0" cy="0.0" r="5" fill="None"/> <circle cx="52.0" cy="0.0" r="5" fill="None"/> <circle cx="0.0" cy="13.0" r="5" fill="None"/> <circle cx="13.0" cy="13.0" r="5" fill="None"/> <circle cx="26.0" cy="13.0" r="5" fill="None"/> <circle cx="39.0" cy="13.0" r="5" fill="None"/> <circle cx="52.0" cy="13.0" r="5" fill="None"/> <circle cx="65.0" cy="13.0" r="5" fill="None"/> <circle cx="78.0" cy="13.0" r="5" fill="None"/> <circle cx="91.0" cy="13.0" r="5" fill="None"/> <circle cx="104.0" cy="13.0" r="5" fill="None"/> <circle cx="117.0" cy="13.0" r="5" fill="None"/> <circle cx="130.0" cy="13.0" r="5" fill="None"/> <circle cx="143.0" cy="13.0" r="5" fill="None"/> <circle cx="156.0" cy="13.0" r="5" fill="None"/> <circle cx="169.0" cy="13.0" r="5" fill="None"/> <circle cx="182.0" cy="13.0" r="5" fill="None"/> <circle cx="195.0" cy="13.0" r="5" fill="None"/> <circle cx="208.0" cy="13.0" r="5" fill="None"/> <circle cx="221.0" cy="13.0" r="5" fill="None"/> <circle cx="234.0" cy="13.0" r="5" fill="None"/> <circle cx="247.0" cy="13.0" r="5" fill="None"/> <circle cx="260.0" cy="13.0" r="5" fill="None"/> <circle cx="273.0" cy="13.0" r="5" fill="None"/> <circle cx="286.0" cy="13.0" r="5" fill="None"/> <circle cx="299.0" cy="13.0" r="5" fill="None"/> <circle cx="312.0" cy="13.0" r="5" fill="None"/> <circle cx="325.0" cy="13.0" r="5" fill="None"/> <circle cx="338.0" cy="13.0" r="5" fill="None"/> <circle cx="351.0" cy="13.0" r="5" fill="None"/> <circle cx="364.0" cy="13.0" r="5" fill="None"/> <circle cx="377.0" cy="13.0" r="5" fill="None"/> <circle cx="390.0" cy="13.0" r="5" fill="None"/> <circle cx="403.0" cy="13.0" r="5" fill="None"/> <circle cx="416.0" cy="13.0" r="5" fill="None"/> <circle cx="429.0" cy="13.0" r="5" fill="None"/> <circle cx="442.0" cy="13.0" r="5" fill="None"/> <circle cx="455.0" cy="13.0" r="5" fill="None"/> <circle cx="468.0" cy="13.0" r="5" fill="None"/> <circle cx="481.0" cy="13.0" r="5" fill="None"/> <circle cx="494.0" cy="13.0" r="5" fill="None"/> <circle cx="507.0" cy="13.0" r="5" fill="None"/> <circle cx="520.0" cy="13.0" r="5" fill="None"/> <circle cx="533.0" cy="13.0" r="5" fill="None"/> <circle cx="546.0" cy="13.0" r="5" fill="None"/> <circle cx="559.0" cy="13.0" r="5" fill="None"/> <circle cx="572.0" cy="13.0" r="5" fill="None"/> <circle cx="585.0" cy="13.0" r="5" fill="None"/> <circle cx="598.0" cy="13.0" r="5" fill="None"/> <circle cx="611.0" cy="13.0" r="5" fill="None"/> <circle cx="624.0" cy="13.0" r="5" fill="None"/> <circle cx="637.0" cy="13.0" r="5" fill="None"/> <circle cx="650.0" cy="13.0" r="5" fill="None"/> <circle cx="663.0" cy="13.0" r="5" fill="None"/> <circle cx="676.0" cy="13.0" r="5" fill="None"/> <circle cx="0.0" cy="26.0" r="5" fill="None"/> <circle cx="13.0" cy="26.0" r="5" fill="None"/> <circle cx="26.0" cy="26.0" r="5" fill="None"/> <circle cx="39.0" cy="26.0" r="5" fill="None"/> <circle cx="52.0" cy="26.0" r="5" fill="None"/> <circle cx="65.0" cy="26.0" r="5" fill="None"/> <circle cx="78.0" cy="26.0" r="5" fill="None"/> <circle cx="91.0" cy="26.0" r="5" fill="None"/> <circle cx="104.0" cy="26.0" r="5" fill="None"/> <circle cx="117.0" cy="26.0" r="5" fill="None"/> <circle cx="130.0" cy="26.0" r="5" fill="None"/> <circle cx="143.0" cy="26.0" r="5" fill="None"/> <circle cx="156.0" cy="26.0" r="5" fill="None"/> <circle cx="169.0" cy="26.0" r="5" fill="None"/> <circle cx="182.0" cy="26.0" r="5" fill="None"/> <circle cx="195.0" cy="26.0" r="5" fill="None"/> <circle cx="208.0" cy="26.0" r="5" fill="None"/> <circle cx="221.0" cy="26.0" r="5" fill="None"/> <circle cx="234.0" cy="26.0" r="5" fill="None"/> <circle cx="247.0" cy="26.0" r="5" fill="None"/> <circle cx="260.0" cy="26.0" r="5" fill="None"/> <circle cx="273.0" cy="26.0" r="5" fill="None"/> <circle cx="286.0" cy="26.0" r="5" fill="None"/> <circle cx="299.0" cy="26.0" r="5" fill="None"/> <circle cx="312.0" cy="26.0" r="5" fill="None"/> <circle cx="325.0" cy="26.0" r="5" fill="None"/> <circle cx="338.0" cy="26.0" r="5" fill="None"/> <circle cx="351.0" cy="26.0" r="5" fill="None"/> <circle cx="364.0" cy="26.0" r="5" fill="None"/> <circle cx="377.0" cy="26.0" r="5" fill="None"/> <circle cx="390.0" cy="26.0" r="5" fill="None"/> <circle cx="403.0" cy="26.0" r="5" fill="None"/> <circle cx="416.0" cy="26.0" r="5" fill="None"/> <circle cx="429.0" cy="26.0" r="5" fill="None"/> <circle cx="442.0" cy="26.0" r="5" fill="None"/> <circle cx="455.0" cy="26.0" r="5" fill="None"/> <circle cx="468.0" cy="26.0" r="5" fill="None"/> <circle cx="481.0" cy="26.0" r="5" fill="None"/> <circle cx="494.0" cy="26.0" r="5" fill="None"/> <circle cx="507.0" cy="26.0" r="5" fill="None"/> <circle cx="520.0" cy="26.0" r="5" fill="None"/> <circle cx="533.0" cy="26.0" r="5" fill="None"/> <circle cx="546.0" cy="26.0" r="5" fill="None"/> <circle cx="559.0" cy="26.0" r="5" fill="None"/> <circle cx="572.0" cy="26.0" r="5" fill="None"/> <circle cx="585.0" cy="26.0" r="5" fill="None"/> <circle cx="598.0" cy="26.0" r="5" fill="None"/> <circle cx="611.0" cy="26.0" r="5" fill="None"/> <circle cx="624.0" cy="26.0" r="5" fill="None"/> <circle cx="637.0" cy="26.0" r="5" fill="None"/> <circle cx="650.0" cy="26.0" r="5" fill="None"/> <circle cx="663.0" cy="26.0" r="5" fill="None"/> <circle cx="676.0" cy="26.0" r="5" fill="None"/> <circle cx="0.0" cy="39.0" r="5" fill="None"/> <circle cx="13.0" cy="39.0" r="5" fill="None"/> <circle cx="26.0" cy="39.0" r="5" fill="None"/> <circle cx="39.0" cy="39.0" r="5" fill="None"/> <circle cx="52.0" cy="39.0" r="5" fill="None"/> <circle cx="65.0" cy="39.0" r="5" fill="None"/> <circle cx="78.0" cy="39.0" r="5" fill="None"/> <circle cx="91.0" cy="39.0" r="5" fill="None"/> <circle cx="104.0" cy="39.0" r="5" fill="None"/> <circle cx="117.0" cy="39.0" r="5" fill="None"/> <circle cx="130.0" cy="39.0" r="5" fill="None"/> <circle cx="143.0" cy="39.0" r="5" fill="None"/> <circle cx="156.0" cy="39.0" r="5" fill="None"/> <circle cx="169.0" cy="39.0" r="5" fill="None"/> <circle cx="182.0" cy="39.0" r="5" fill="None"/> <circle cx="195.0" cy="39.0" r="5" fill="None"/> <circle cx="208.0" cy="39.0" r="5" fill="None"/> <circle cx="221.0" cy="39.0" r="5" fill="None"/> <circle cx="234.0" cy="39.0" r="5" fill="None"/> <circle cx="247.0" cy="39.0" r="5" fill="None"/> <circle cx="260.0" cy="39.0" r="5" fill="None"/> <circle cx="273.0" cy="39.0" r="5" fill="None"/> <circle cx="286.0" cy="39.0" r="5" fill="None"/> <circle cx="299.0" cy="39.0" r="5" fill="None"/> <circle cx="312.0" cy="39.0" r="5" fill="None"/> <circle cx="325.0" cy="39.0" r="5" fill="None"/> <circle cx="338.0" cy="39.0" r="5" fill="None"/> <circle cx="351.0" cy="39.0" r="5" fill="None"/> <circle cx="364.0" cy="39.0" r="5" fill="None"/> <circle cx="377.0" cy="39.0" r="5" fill="None"/> <circle cx="390.0" cy="39.0" r="5" fill="None"/> <circle cx="403.0" cy="39.0" r="5" fill="None"/> <circle cx="416.0" cy="39.0" r="5" fill="None"/> <circle cx="429.0" cy="39.0" r="5" fill="None"/> <circle cx="442.0" cy="39.0" r="5" fill="None"/> <circle cx="455.0" cy="39.0" r="5" fill="None"/> <circle cx="468.0" cy="39.0" r="5" fill="None"/> <circle cx="481.0" cy="39.0" r="5" fill="None"/> <circle cx="494.0" cy="39.0" r="5" fill="None"/> <circle cx="507.0" cy="39.0" r="5" fill="None"/> <circle cx="520.0" cy="39.0" r="5" fill="None"/> <circle cx="533.0" cy="39.0" r="5" fill="None"/> <circle cx="546.0" cy="39.0" r="5" fill="None"/> <circle cx="559.0" cy="39.0" r="5" fill="None"/> <circle cx="572.0" cy="39.0" r="5" fill="None"/> <circle cx="585.0" cy="39.0" r="5" fill="None"/> <circle cx="598.0" cy="39.0" r="5" fill="None"/> <circle cx="611.0" cy="39.0" r="5" fill="None"/> <circle cx="624.0" cy="39.0" r="5" fill="None"/> <circle cx="637.0" cy="39.0" r="5" fill="None"/> <circle cx="650.0" cy="39.0" r="5" fill="None"/> <circle cx="663.0" cy="39.0" r="5" fill="None"/> <circle cx="676.0" cy="39.0" r="5" fill="None"/> <circle cx="0.0" cy="52.0" r="5" fill="None"/> <circle cx="13.0" cy="52.0" r="5" fill="None"/> <circle cx="26.0" cy="52.0" r="5" fill="None"/> <circle cx="39.0" cy="52.0" r="5" fill="None"/> <circle cx="52.0" cy="52.0" r="5" fill="None"/> <circle cx="65.0" cy="52.0" r="5" fill="None"/> <circle cx="78.0" cy="52.0" r="5" fill="None"/> <circle cx="91.0" cy="52.0" r="5" fill="None"/> <circle cx="104.0" cy="52.0" r="5" fill="None"/> <circle cx="117.0" cy="52.0" r="5" fill="None"/> <circle cx="130.0" cy="52.0" r="5" fill="None"/> <circle cx="143.0" cy="52.0" r="5" fill="None"/> <circle cx="156.0" cy="52.0" r="5" fill="None"/> <circle cx="169.0" cy="52.0" r="5" fill="None"/> <circle cx="182.0" cy="52.0" r="5" fill="None"/> <circle cx="195.0" cy="52.0" r="5" fill="None"/> <circle cx="208.0" cy="52.0" r="5" fill="None"/> <circle cx="221.0" cy="52.0" r="5" fill="None"/> <circle cx="234.0" cy="52.0" r="5" fill="None"/> <circle cx="247.0" cy="52.0" r="5" fill="None"/> <circle cx="260.0" cy="52.0" r="5" fill="None"/> <circle cx="273.0" cy="52.0" r="5" fill="None"/> <circle cx="286.0" cy="52.0" r="5" fill="None"/> <circle cx="299.0" cy="52.0" r="5" fill="None"/> <circle cx="312.0" cy="52.0" r="5" fill="None"/> <circle cx="325.0" cy="52.0" r="5" fill="None"/> <circle cx="338.0" cy="52.0" r="5" fill="None"/> <circle cx="351.0" cy="52.0" r="5" fill="None"/> <circle cx="364.0" cy="52.0" r="5" fill="None"/> <circle cx="377.0" cy="52.0" r="5" fill="None"/> <circle cx="390.0" cy="52.0" r="5" fill="None"/> <circle cx="403.0" cy="52.0" r="5" fill="None"/> <circle cx="416.0" cy="52.0" r="5" fill="None"/> <circle cx="429.0" cy="52.0" r="5" fill="None"/> <circle cx="442.0" cy="52.0" r="5" fill="None"/> <circle cx="455.0" cy="52.0" r="5" fill="None"/> <circle cx="468.0" cy="52.0" r="5" fill="None"/> <circle cx="481.0" cy="52.0" r="5" fill="None"/> <circle cx="494.0" cy="52.0" r="5" fill="None"/> <circle cx="507.0" cy="52.0" r="5" fill="None"/> <circle cx="520.0" cy="52.0" r="5" fill="None"/> <circle cx="533.0" cy="52.0" r="5" fill="None"/> <circle cx="546.0" cy="52.0" r="5" fill="None"/> <circle cx="559.0" cy="52.0" r="5" fill="None"/> <circle cx="572.0" cy="52.0" r="5" fill="None"/> <circle cx="585.0" cy="52.0" r="5" fill="None"/> <circle cx="598.0" cy="52.0" r="5" fill="None"/> <circle cx="611.0" cy="52.0" r="5" fill="None"/> <circle cx="624.0" cy="52.0" r="5" fill="None"/> <circle cx="637.0" cy="52.0" r="5" fill="None"/> <circle cx="650.0" cy="52.0" r="5" fill="None"/> <circle cx="663.0" cy="52.0" r="5" fill="None"/> <circle cx="0.0" cy="65.0" r="5" fill="None"/> <circle cx="13.0" cy="65.0" r="5" fill="None"/> <circle cx="26.0" cy="65.0" r="5" fill="None"/> <circle cx="39.0" cy="65.0" r="5" fill="None"/> <circle cx="52.0" cy="65.0" r="5" fill="None"/> <circle cx="65.0" cy="65.0" r="5" fill="None"/> <circle cx="78.0" cy="65.0" r="5" fill="None"/> <circle cx="91.0" cy="65.0" r="5" fill="None"/> <circle cx="104.0" cy="65.0" r="5" fill="None"/> <circle cx="117.0" cy="65.0" r="5" fill="None"/> <circle cx="130.0" cy="65.0" r="5" fill="None"/> <circle cx="143.0" cy="65.0" r="5" fill="None"/> <circle cx="156.0" cy="65.0" r="5" fill="None"/> <circle cx="169.0" cy="65.0" r="5" fill="None"/> <circle cx="182.0" cy="65.0" r="5" fill="None"/> <circle cx="195.0" cy="65.0" r="5" fill="None"/> <circle cx="208.0" cy="65.0" r="5" fill="None"/> <circle cx="221.0" cy="65.0" r="5" fill="None"/> <circle cx="234.0" cy="65.0" r="5" fill="None"/> <circle cx="247.0" cy="65.0" r="5" fill="None"/> <circle cx="260.0" cy="65.0" r="5" fill="None"/> <circle cx="273.0" cy="65.0" r="5" fill="None"/> <circle cx="286.0" cy="65.0" r="5" fill="None"/> <circle cx="299.0" cy="65.0" r="5" fill="None"/> <circle cx="312.0" cy="65.0" r="5" fill="None"/> <circle cx="325.0" cy="65.0" r="5" fill="None"/> <circle cx="338.0" cy="65.0" r="5" fill="None"/> <circle cx="351.0" cy="65.0" r="5" fill="None"/> <circle cx="364.0" cy="65.0" r="5" fill="None"/> <circle cx="377.0" cy="65.0" r="5" fill="None"/> <circle cx="390.0" cy="65.0" r="5" fill="None"/> <circle cx="403.0" cy="65.0" r="5" fill="None"/> <circle cx="416.0" cy="65.0" r="5" fill="None"/> <circle cx="429.0" cy="65.0" r="5" fill="None"/> <circle cx="442.0" cy="65.0" r="5" fill="None"/> <circle cx="455.0" cy="65.0" r="5" fill="None"/> <circle cx="468.0" cy="65.0" r="5" fill="None"/> <circle cx="481.0" cy="65.0" r="5" fill="None"/> <circle cx="494.0" cy="65.0" r="5" fill="None"/> <circle cx="507.0" cy="65.0" r="5" fill="None"/> <circle cx="520.0" cy="65.0" r="5" fill="None"/> <circle cx="533.0" cy="65.0" r="5" fill="None"/> <circle cx="546.0" cy="65.0" r="5" fill="None"/> <circle cx="559.0" cy="65.0" r="5" fill="None"/> <circle cx="572.0" cy="65.0" r="5" fill="None"/> <circle cx="585.0" cy="65.0" r="5" fill="None"/> <circle cx="598.0" cy="65.0" r="5" fill="None"/> <circle cx="611.0" cy="65.0" r="5" fill="None"/> <circle cx="624.0" cy="65.0" r="5" fill="None"/> <circle cx="637.0" cy="65.0" r="5" fill="None"/> <circle cx="650.0" cy="65.0" r="5" fill="None"/> <circle cx="663.0" cy="65.0" r="5" fill="None"/> <circle cx="0.0" cy="78.0" r="5" fill="None"/> <circle cx="13.0" cy="78.0" r="5" fill="None"/> <circle cx="26.0" cy="78.0" r="5" fill="None"/> <circle cx="39.0" cy="78.0" r="5" fill="None"/> <circle cx="52.0" cy="78.0" r="5" fill="None"/> <circle cx="65.0" cy="78.0" r="5" fill="None"/> <circle cx="78.0" cy="78.0" r="5" fill="None"/> <circle cx="91.0" cy="78.0" r="5" fill="None"/> <circle cx="104.0" cy="78.0" r="5" fill="None"/> <circle cx="117.0" cy="78.0" r="5" fill="None"/> <circle cx="130.0" cy="78.0" r="5" fill="None"/> <circle cx="143.0" cy="78.0" r="5" fill="None"/> <circle cx="156.0" cy="78.0" r="5" fill="None"/> <circle cx="169.0" cy="78.0" r="5" fill="None"/> <circle cx="182.0" cy="78.0" r="5" fill="None"/> <circle cx="195.0" cy="78.0" r="5" fill="None"/> <circle cx="208.0" cy="78.0" r="5" fill="None"/> <circle cx="221.0" cy="78.0" r="5" fill="None"/> <circle cx="234.0" cy="78.0" r="5" fill="None"/> <circle cx="247.0" cy="78.0" r="5" fill="None"/> <circle cx="260.0" cy="78.0" r="5" fill="None"/> <circle cx="273.0" cy="78.0" r="5" fill="None"/> <circle cx="286.0" cy="78.0" r="5" fill="None"/> <circle cx="299.0" cy="78.0" r="5" fill="None"/> <circle cx="312.0" cy="78.0" r="5" fill="None"/> <circle cx="325.0" cy="78.0" r="5" fill="None"/> <circle cx="338.0" cy="78.0" r="5" fill="None"/> <circle cx="351.0" cy="78.0" r="5" fill="None"/> <circle cx="364.0" cy="78.0" r="5" fill="None"/> <circle cx="377.0" cy="78.0" r="5" fill="None"/> <circle cx="390.0" cy="78.0" r="5" fill="None"/> <circle cx="403.0" cy="78.0" r="5" fill="None"/> <circle cx="416.0" cy="78.0" r="5" fill="None"/> <circle cx="429.0" cy="78.0" r="5" fill="None"/> <circle cx="442.0" cy="78.0" r="5" fill="None"/> <circle cx="455.0" cy="78.0" r="5" fill="None"/> <circle cx="468.0" cy="78.0" r="5" fill="None"/> <circle cx="481.0" cy="78.0" r="5" fill="None"/> <circle cx="494.0" cy="78.0" r="5" fill="None"/> <circle cx="507.0" cy="78.0" r="5" fill="None"/> <circle cx="520.0" cy="78.0" r="5" fill="None"/> <circle cx="533.0" cy="78.0" r="5" fill="None"/> <circle cx="546.0" cy="78.0" r="5" fill="None"/> <circle cx="559.0" cy="78.0" r="5" fill="None"/> <circle cx="572.0" cy="78.0" r="5" fill="None"/> <circle cx="585.0" cy="78.0" r="5" fill="None"/> <circle cx="598.0" cy="78.0" r="5" fill="None"/> <circle cx="611.0" cy="78.0" r="5" fill="None"/> <circle cx="624.0" cy="78.0" r="5" fill="None"/> <circle cx="637.0" cy="78.0" r="5" fill="None"/> <circle cx="650.0" cy="78.0" r="5" fill="None"/> <circle cx="663.0" cy="78.0" r="5" fill="None"/></g>
        <g id="pacman" transform="translate(0.0,0.0)">
            <circle r="10" fill="yellow"/>
            <polygon points="0,0 10,-5 10,5" fill="black"/>
            
    <animateTransform attributeName="transform" type="translate"
        values=0.0,0.0;13.0,0.0;26.0,0.0;39.0,0.0;52.0,0.0;65.0,0.0;78.0,0.0;91.0,0.0;104.0,0.0;117.0,0.0;130.0,0.0;143.0,0.0;156.0,0.0;169.0,0.0;182.0,0.0;195.0,0.0;208.0,0.0;221.0,0.0;234.0,0.0;247.0,0.0;260.0,0.0;273.0,0.0;286.0,0.0;299.0,0.0;312.0,0.0;325.0,0.0;338.0,0.0;351.0,0.0;364.0,0.0;377.0,0.0;390.0,0.0;403.0,0.0;416.0,0.0;429.0,0.0;442.0,0.0;455.0,0.0;468.0,0.0;481.0,0.0;494.0,0.0;507.0,0.0;520.0,0.0;533.0,0.0;546.0,0.0;559.0,0.0;572.0,0.0;585.0,0.0;598.0,0.0;611.0,0.0;624.0,0.0;637.0,0.0;650.0,0.0;663.0,0.0;676.0,0.0;0.0,0.0;13.0,0.0;26.0,0.0;39.0,0.0;52.0,0.0;0.0,13.0;13.0,13.0;26.0,13.0;39.0,13.0;52.0,13.0;65.0,13.0;78.0,13.0;91.0,13.0;104.0,13.0;117.0,13.0;130.0,13.0;143.0,13.0;156.0,13.0;169.0,13.0;182.0,13.0;195.0,13.0;208.0,13.0;221.0,13.0;234.0,13.0;247.0,13.0;260.0,13.0;273.0,13.0;286.0,13.0;299.0,13.0;312.0,13.0;325.0,13.0;338.0,13.0;351.0,13.0;364.0,13.0;377.0,13.0;390.0,13.0;403.0,13.0;416.0,13.0;429.0,13.0;442.0,13.0;455.0,13.0;468.0,13.0;481.0,13.0;494.0,13.0;507.0,13.0;520.0,13.0;533.0,13.0;546.0,13.0;559.0,13.0;572.0,13.0;585.0,13.0;598.0,13.0;611.0,13.0;624.0,13.0;637.0,13.0;650.0,13.0;663.0,13.0;676.0,13.0;0.0,26.0;13.0,26.0;26.0,26.0;39.0,26.0;52.0,26.0;65.0,26.0;78.0,26.0;91.0,26.0;104.0,26.0;117.0,26.0;130.0,26.0;143.0,26.0;156.0,26.0;169.0,26.0;182.0,26.0;195.0,26.0;208.0,26.0;221.0,26.0;234.0,26.0;247.0,26.0;260.0,26.0;273.0,26.0;286.0,26.0;299.0,26.0;312.0,26.0;325.0,26.0;338.0,26.0;351.0,26.0;364.0,26.0;377.0,26.0;390.0,26.0;403.0,26.0;416.0,26.0;429.0,26.0;442.0,26.0;455.0,26.0;468.0,26.0;481.0,26.0;494.0,26.0;507.0,26.0;520.0,26.0;533.0,26.0;546.0,26.0;559.0,26.0;572.0,26.0;585.0,26.0;598.0,26.0;611.0,26.0;624.0,26.0;637.0,26.0;650.0,26.0;663.0,26.0;676.0,26.0;0.0,39.0;13.0,39.0;26.0,39.0;39.0,39.0;52.0,39.0;65.0,39.0;78.0,39.0;91.0,39.0;104.0,39.0;117.0,39.0;130.0,39.0;143.0,39.0;156.0,39.0;169.0,39.0;182.0,39.0;195.0,39.0;208.0,39.0;221.0,39.0;234.0,39.0;247.0,39.0;260.0,39.0;273.0,39.0;286.0,39.0;299.0,39.0;312.0,39.0;325.0,39.0;338.0,39.0;351.0,39.0;364.0,39.0;377.0,39.0;390.0,39.0;403.0,39.0;416.0,39.0;429.0,39.0;442.0,39.0;455.0,39.0;468.0,39.0;481.0,39.0;494.0,39.0;507.0,39.0;520.0,39.0;533.0,39.0;546.0,39.0;559.0,39.0;572.0,39.0;585.0,39.0;598.0,39.0;611.0,39.0;624.0,39.0;637.0,39.0;650.0,39.0;663.0,39.0;676.0,39.0;0.0,52.0;13.0,52.0;26.0,52.0;39.0,52.0;52.0,52.0;65.0,52.0;78.0,52.0;91.0,52.0;104.0,52.0;117.0,52.0;130.0,52.0;143.0,52.0;156.0,52.0;169.0,52.0;182.0,52.0;195.0,52.0;208.0,52.0;221.0,52.0;234.0,52.0;247.0,52.0;260.0,52.0;273.0,52.0;286.0,52.0;299.0,52.0;312.0,52.0;325.0,52.0;338.0,52.0;351.0,52.0;364.0,52.0;377.0,52.0;390.0,52.0;403.0,52.0;416.0,52.0;429.0,52.0;442.0,52.0;455.0,52.0;468.0,52.0;481.0,52.0;494.0,52.0;507.0,52.0;520.0,52.0;533.0,52.0;546.0,52.0;559.0,52.0;572.0,52.0;585.0,52.0;598.0,52.0;611.0,52.0;624.0,52.0;637.0,52.0;650.0,52.0;663.0,52.0;0.0,65.0;13.0,65.0;26.0,65.0;39.0,65.0;52.0,65.0;65.0,65.0;78.0,65.0;91.0,65.0;104.0,65.0;117.0,65.0;130.0,65.0;143.0,65.0;156.0,65.0;169.0,65.0;182.0,65.0;195.0,65.0;208.0,65.0;221.0,65.0;234.0,65.0;247.0,65.0;260.0,65.0;273.0,65.0;286.0,65.0;299.0,65.0;312.0,65.0;325.0,65.0;338.0,65.0;351.0,65.0;364.0,65.0;377.0,65.0;390.0,65.0;403.0,65.0;416.0,65.0;429.0,65.0;442.0,65.0;455.0,65.0;468.0,65.0;481.0,65.0;494.0,65.0;507.0,65.0;520.0,65.0;533.0,65.0;546.0,65.0;559.0,65.0;572.0,65.0;585.0,65.0;598.0,65.0;611.0,65.0;624.0,65.0;637.0,65.0;650.0,65.0;663.0,65.0;0.0,78.0;13.0,78.0;26.0,78.0;39.0,78.0;52.0,78.0;65.0,78.0;78.0,78.0;91.0,78.0;104.0,78.0;117.0,78.0;130.0,78.0;143.0,78.0;156.0,78.0;169.0,78.0;182.0,78.0;195.0,78.0;208.0,78.0;221.0,78.0;234.0,78.0;247.0,78.0;260.0,78.0;273.0,78.0;286.0,78.0;299.0,78.0;312.0,78.0;325.0,78.0;338.0,78.0;351.0,78.0;364.0,78.0;377.0,78.0;390.0,78.0;403.0,78.0;416.0,78.0;429.0,78.0;442.0,78.0;455.0,78.0;468.0,78.0;481.0,78.0;494.0,78.0;507.0,78.0;520.0,78.0;533.0,78.0;546.0,78.0;559.0,78.0;572.0,78.0;585.0,78.0;598.0,78.0;611.0,78.0;624.0,78.0;637.0,78.0;650.0,78.0;663.0,78.0
        dur="5s" repeatCount="indefinite"/>
    
        </g>
    </svg>